<svg width="169" height="169" viewBox="0 0 169 169" fill="none" xmlns="http://www.w3.org/2000/svg">
<path d="M84.5 169C131.168 169 169 131.168 169 84.5C169 37.8319 131.168 0 84.5 0C37.8319 0 0 37.8319 0 84.5C0 131.168 37.8319 169 84.5 169Z" fill="#CEF564"/>
<path d="M98.5793 149.107C102.126 148.393 104.112 150.485 104.66 153.202C105.208 155.919 104.189 158.617 100.636 159.338C97.0888 160.052 95.1022 157.96 94.5546 155.249C94.007 152.538 95.032 149.822 98.5793 149.107Z" fill="#016450"/>
<path d="M74.8658 22.1789C71.2999 22.7912 69.3769 20.6353 68.912 17.9054C68.4472 15.1755 69.5487 12.5094 73.1147 11.897C76.6806 11.2847 78.6037 13.4406 79.0685 16.1705C79.5334 18.9004 78.4317 21.5729 74.8658 22.1789Z" fill="#016450"/>
<path d="M69.1152 90.2631C69.0334 89.9813 68.9142 89.7118 68.7609 89.4616C68.6089 89.1734 68.54 88.8486 68.5619 88.5235C68.5619 88.2937 68.6614 88.1321 68.4376 87.9893C68.3008 87.9219 68.1569 87.8699 68.0087 87.8339L65.6964 87.1133C65.9875 88.159 66.5669 89.1019 67.3685 89.8344C67.8651 90.6418 68.4308 91.4047 69.0592 92.1144C68.9596 91.8955 68.9047 91.659 68.8976 91.4186C68.8852 91.0459 69.1711 90.6545 69.1152 90.2631Z" fill="#016450"/>
<path d="M65.5969 86.343C66.5045 86.6225 67.4182 86.8959 68.3196 87.1879C68.639 87.2584 68.927 87.4306 69.1401 87.6787C69.3763 88.0142 69.2395 88.2999 69.2582 88.7038C69.2582 89.325 69.8176 89.7475 69.8238 90.3625C69.8238 90.7353 69.5876 91.0583 69.6001 91.4249C69.6509 91.7625 69.788 92.0813 69.9979 92.3506C70.7978 93.4438 71.9292 94.2499 73.224 94.6492C74.7788 95.1391 76.3989 95.3905 78.029 95.3947C78.3549 95.421 78.6822 95.3661 78.9816 95.2349C79.281 95.1037 79.5432 94.9003 79.7447 94.643C80.0412 94.2427 80.2682 93.7954 80.416 93.3197C79.6034 92.85 78.91 92.1995 78.3896 91.4187C77.6685 90.4247 77.0034 89.3996 76.3134 88.3869C76.028 87.8556 75.6703 87.3664 75.2505 86.9332C74.781 86.6417 74.2597 86.4435 73.7151 86.3492C73.1838 86.2184 72.6436 86.1271 72.0989 86.0758C71.6451 86.0323 71.1852 86.0758 70.7376 85.964C70.3922 85.9146 70.0762 85.7422 69.8478 85.4786C69.6194 85.2149 69.4939 84.8777 69.4944 84.5289C69.4944 83.8455 69.886 83.218 69.9046 82.5409C69.9046 82.1308 69.6436 82.0314 69.4198 81.727C69.1276 81.3294 69.3452 80.9194 69.3514 80.4845C69.2999 79.9311 69.2148 79.3813 69.0966 78.8382C69.0406 78.3784 69.022 77.9063 69.0095 77.4403C69.0095 75.5765 69.2209 73.5699 68.1331 71.9422C67.8782 71.557 68.506 71.1967 68.7547 71.5818C69.9419 73.3524 69.6871 75.5393 69.7306 77.5584C69.7347 78.0701 69.7762 78.5809 69.8549 79.0867C69.9622 79.5463 70.0328 80.0137 70.0663 80.4845C70.0663 80.7516 69.8984 81.1617 70.0663 81.3729C70.2341 81.5841 70.3273 81.6028 70.4268 81.7581C70.5755 81.9957 70.6471 82.2734 70.6319 82.5533C70.6319 83.2118 70.2652 83.7958 70.2279 84.4668C70.1719 85.4173 71.3219 85.3055 71.9995 85.3614C73.0638 85.4371 74.1111 85.6695 75.1075 86.051C76.1269 86.4548 76.618 87.4923 77.2023 88.3496C77.7866 89.207 78.4082 90.1575 79.0671 91.0335C79.5694 91.8181 80.2795 92.4482 81.1184 92.8538C81.1868 92.8934 81.2403 92.9544 81.2706 93.0273C81.301 93.1003 81.3065 93.1812 81.2863 93.2576C80.8884 94.5995 80.0928 96.0036 78.5201 96.1278C77.6444 96.1556 76.7681 96.0994 75.9032 95.9601C75.0937 95.8759 74.293 95.7221 73.51 95.5003C73.2427 95.4196 72.9754 95.3264 72.7143 95.227C73.8866 95.9676 75.1375 96.576 76.4439 97.0411C81.0749 98.7123 86.8869 97.9108 91.0579 95.345C94.6234 93.1165 97.3947 89.8207 98.9772 85.9267H98.8964L98.4053 85.8646C98.2538 85.8547 98.1076 85.8053 97.9811 85.7214C97.8546 85.6374 97.7522 85.5219 97.6842 85.3862C97.4391 85.0657 97.266 84.6961 97.177 84.3026C97.088 83.9091 97.085 83.501 97.1683 83.1062C97.5786 81.8202 98.9648 81.3046 100.077 80.7516C100.146 80.7159 100.225 80.7028 100.301 80.7144C100.508 78.7399 100.367 76.7445 99.8847 74.8186C99.821 73.402 99.2874 72.0468 98.368 70.9668C98.368 70.9171 98.3245 70.8736 98.2996 70.8301C98.0696 70.4263 97.821 70.0535 97.5599 69.6808C97.2217 69.2032 96.8521 68.7487 96.4535 68.3202C93.7431 65.5421 90.1117 63.8478 86.2405 63.5552C86.2405 63.5986 86.2778 63.6173 86.284 63.6608C86.2813 63.6793 86.2813 63.6981 86.284 63.7167C85.7903 63.5785 85.2877 63.4747 84.7797 63.4061C83.9344 63.2878 83.0735 63.3535 82.256 63.5986C79.8944 63.8209 77.5969 64.4914 75.4867 65.5742C73.456 66.3505 71.6098 67.5418 70.0663 69.0719C67.4072 71.7527 65.6663 75.2065 65.0934 78.9376C64.9019 79.5789 64.8015 80.2439 64.795 80.9132C64.7991 81.2895 64.8281 81.6652 64.8821 82.0376C64.8448 82.4302 64.8448 82.8254 64.8821 83.218C64.9489 84.0515 65.1331 84.8713 65.4291 85.6534C65.4726 85.8832 65.5099 86.1193 65.5472 86.343C65.5637 86.3417 65.5804 86.3417 65.5969 86.343ZM90.6725 78.2666C90.9351 78.8273 91.1433 79.4119 91.2941 80.0123C91.4975 80.6826 91.6574 81.3654 91.7728 82.0563C91.9812 83.2106 91.9622 84.3945 91.7168 85.5415C91.4806 86.5294 90.9709 87.9085 89.8831 88.244C88.7953 88.5795 87.751 87.7657 87.1107 86.958C86.7765 86.4915 86.3998 86.0569 85.9856 85.6596C85.537 85.3214 85.0459 85.0435 84.5248 84.8333C83.5986 84.3984 82.2933 83.8393 82.1006 82.7148C82.0596 82.1356 82.1379 81.5541 82.3306 81.0063C82.448 80.539 82.6234 80.0883 82.8527 79.6644C83.078 79.235 83.4152 78.8744 83.8286 78.6207C84.3321 78.3411 84.9289 78.3163 85.451 78.074C86.3959 77.6329 87.3158 76.8688 88.3974 76.9992C88.7306 76.9718 89.066 77.0076 89.3858 77.1048C89.6704 77.206 89.9323 77.3623 90.1563 77.5649C90.3803 77.7675 90.5621 78.0123 90.6912 78.2852L90.6725 78.2666ZM73.5597 66.9162C73.5162 66.4627 74.2435 66.4627 74.287 66.9162C74.4175 68.2705 73.7897 69.5627 73.9078 70.9047C74.0738 71.6119 74.3048 72.3024 74.5978 72.9672C74.7584 73.6315 74.8542 74.3098 74.8837 74.9926C74.905 75.6047 74.9799 76.2138 75.1075 76.8128C75.1697 77.0613 75.2691 77.3782 75.5861 77.3596C75.829 77.3256 76.0656 77.2565 76.2885 77.1545C77.2549 76.7719 78.0379 76.0338 78.4766 75.092C78.9055 74.1538 78.9366 72.8927 80.0493 72.4454C80.296 72.3685 80.556 72.3437 80.8128 72.3726C81.0696 72.4015 81.3177 72.4834 81.5411 72.6131C81.7803 72.7232 82.0432 72.7718 82.3059 72.7545C82.5686 72.7371 82.8228 72.6543 83.0454 72.5137C83.485 72.2346 83.9465 71.9915 84.4254 71.7868C84.9928 71.6233 85.5898 71.5894 86.1721 71.6874C87.5645 71.8365 88.9507 71.9919 90.3431 72.1348C90.9656 72.2375 91.6033 72.1972 92.2079 72.0167C92.6392 71.828 93.0378 71.5722 93.3889 71.2588C94.0619 70.5689 94.8732 70.029 95.7697 69.6746C95.8571 69.6606 95.9466 69.6793 96.0211 69.727C96.0956 69.7748 96.15 69.8483 96.1738 69.9335C96.1976 70.0187 96.1892 70.1097 96.1502 70.1891C96.1112 70.2685 96.0444 70.3308 95.9624 70.3642C94.8497 70.6872 94.0976 71.6874 93.19 72.3087C91.9468 73.135 90.5109 72.8741 89.0936 72.725L86.9305 72.4889C86.2503 72.3605 85.5549 72.3333 84.8667 72.4081C83.8286 72.6318 83.0703 73.6506 81.9327 73.4767C81.4168 73.4083 80.8387 72.8989 80.3166 73.0915C79.7944 73.2841 79.5395 74.0793 79.3841 74.6136C79.0999 75.6442 78.4838 76.5525 77.6312 77.198C76.9723 77.695 75.524 78.5213 74.7843 77.8193C74.4661 77.3969 74.2958 76.8817 74.2994 76.3531C74.2124 75.7318 74.1875 75.0547 74.1254 74.4086C74.0555 73.7188 73.8793 73.0441 73.6032 72.4081C73.334 71.8552 73.1837 71.252 73.1619 70.6375C73.1619 69.3577 73.6778 68.1711 73.5597 66.9162Z" fill="#016450"/>
<path d="M97.8272 83.1246C97.5412 83.7459 97.8893 84.423 98.225 84.9884L98.2872 85.094H98.4053C98.4985 85.094 98.598 85.094 98.6912 85.1313C98.8461 85.1423 98.9998 85.1652 99.1512 85.1996C99.6015 83.977 99.9244 82.7112 100.115 81.4224C99.7231 81.615 99.3315 81.8075 98.9523 82.0436C98.4667 82.2678 98.0704 82.6485 97.8272 83.1246Z" fill="#016450"/>
<path d="M88.5964 77.7256C88.5472 77.7353 88.4965 77.7353 88.4472 77.7256H88.3789C88.124 77.7256 87.8629 77.7878 87.6143 77.825H87.5273C86.8621 78.0425 86.284 78.5208 85.6251 78.788C85.1112 78.9184 84.6083 79.0888 84.1209 79.2974C83.7524 79.5575 83.4691 79.9206 83.3065 80.3411C83.1415 80.7425 83.0145 81.1585 82.9274 81.5837C82.8282 81.818 82.7899 82.0735 82.8159 82.3266C82.842 82.5796 82.9317 82.822 83.0766 83.0312C83.6982 83.7581 84.7487 84.0501 85.563 84.4849C86.0029 84.7076 86.4072 84.9945 86.7627 85.3361C87.0838 85.6891 87.3867 86.0582 87.6702 86.4419C88.1799 87.0632 89.1932 88.051 90.051 87.3614C90.4315 86.9887 90.7098 86.5244 90.8591 86.0132C91.027 85.5583 91.1397 85.0848 91.1947 84.603C91.2873 83.5841 91.2202 82.557 90.9958 81.5588C90.8211 80.5734 90.5246 79.6134 90.1131 78.701C90.0218 78.4757 89.882 78.2732 89.7037 78.1079C89.5254 77.9426 89.3129 77.8184 89.0813 77.7443C88.9209 77.7199 88.7582 77.7137 88.5964 77.7256Z" fill="#016450"/>
<path d="M104.82 76.6761C104.698 75.5822 104.518 74.4955 104.28 73.4207C104.224 73.1225 104.193 72.7498 104.112 72.4267C104.031 72.1037 103.876 71.6253 103.733 71.2339C103.094 69.4453 102.261 67.7327 101.246 66.1271C101.153 65.9843 101.053 65.8351 100.948 65.6985C101.681 64.8701 102.409 64.0231 103.13 63.1575C103.571 62.6357 102.856 61.915 102.353 62.3934C100.359 64.3524 98.3702 66.3135 96.3852 68.2767C96.7808 68.7078 97.1503 69.1621 97.4916 69.6373C98.3432 68.6867 99.1886 67.7238 100.028 66.767C100.395 67.4318 100.761 68.1027 101.109 68.7799C101.127 68.8258 101.15 68.8696 101.178 68.9104C101.251 69.0214 101.355 69.1097 101.476 69.1651C101.644 69.5068 101.812 69.8485 101.967 70.1964C102.327 70.9822 102.626 71.7942 102.862 72.6255C102.906 72.7746 102.943 72.9299 102.974 73.0853L103.011 73.2841C103.011 73.2841 103.011 73.3959 103.011 73.4269C103.061 73.9612 103.241 74.4955 103.335 75.0298C104.033 79.2074 103.479 83.498 101.743 87.3618C100.029 91.3048 97.2795 94.7113 93.7868 97.2212C92.3835 98.2355 90.8204 99.0082 89.1621 99.5074C86.1983 100.368 83.0896 100.612 80.0277 100.226C76.9657 99.8387 74.0156 98.829 71.3593 97.2585C71.0733 97.0721 70.7874 96.8795 70.5139 96.6807C71.1355 96.1464 71.7136 95.6059 72.3103 95.0654C71.7874 94.837 71.2912 94.5516 70.8309 94.2143C69.3328 95.7737 67.8286 97.3206 66.3367 98.8862C66.281 98.9304 66.2361 98.9866 66.2052 99.0506C66.1743 99.1146 66.1582 99.1848 66.1582 99.2558C66.1582 99.3269 66.1743 99.397 66.2052 99.4611C66.2361 99.5251 66.281 99.5813 66.3367 99.6255C66.3851 99.6809 66.4449 99.7253 66.5119 99.7557C66.5789 99.7861 66.6516 99.8018 66.7252 99.8018C66.7988 99.8018 66.8715 99.7861 66.9386 99.7557C67.0056 99.7253 67.0653 99.6809 67.1137 99.6255L69.5566 97.4946C73.1612 100.063 77.4517 101.495 81.8769 101.607C82.5544 101.607 83.2444 101.607 83.9406 101.607C83.9618 104.708 84.2488 107.8 84.7984 110.852C82.2788 110.972 79.7655 111.148 77.2583 111.38H77.221H77.1589H77.1154C77.0866 111.393 77.0612 111.412 77.0408 111.436C76.9968 111.489 76.9728 111.556 76.9728 111.625C76.9728 111.694 76.9968 111.761 77.0408 111.815C77.061 111.846 77.0884 111.873 77.1208 111.893C77.1531 111.912 77.1896 111.924 77.2272 111.926C82.8114 113.003 88.5703 112.757 94.0417 111.206C94.1241 111.195 94.1989 111.152 94.2496 111.086C94.3003 111.02 94.3228 110.937 94.3121 110.855C94.3014 110.772 94.2584 110.698 94.1925 110.647C94.1266 110.596 94.0433 110.574 93.9609 110.585C91.3294 110.56 88.7021 110.601 86.0789 110.709C86.1071 110.638 86.1218 110.562 86.1224 110.485C86.1597 107.447 86.1224 104.403 85.9173 101.371C88.415 101.121 90.8339 100.357 93.0223 99.1285C96.8561 96.8177 99.9889 93.5084 102.085 89.5549C104.208 85.6109 105.157 81.142 104.82 76.6761Z" fill="#016450"/>
<path d="M109.425 21.4811L110.57 22.4602L114.553 17.8015C115.486 16.7097 116.942 16.6185 117.835 17.3818C118.703 18.1245 118.824 19.2108 118.098 20.0601L113.734 25.1652L114.899 26.1609L119.047 21.3081C119.869 20.3473 121.076 20.1532 122.124 21.0494C122.94 21.7464 123.269 22.7757 122.328 23.8773L118.063 28.8659L119.208 29.845L123.473 24.8564C124.97 23.1045 124.722 21.4892 123.392 20.3525C122.325 19.4397 121.124 19.2619 120.081 19.7058L120.004 19.6394C120.315 18.5282 120.063 17.5064 119.083 16.6684C118.112 15.8386 116.996 15.6905 116.005 16.2208L115.908 16.1378L116.904 14.9732L115.797 14.0272L109.425 21.4811Z" fill="#016450"/>
<path d="M123.09 34.9152C124.268 36.1563 125.576 36.1999 126.268 36.0023L126.32 36.0578L125.32 36.9313L126.357 38.0242L131.224 33.7745C133.571 31.7253 132.205 29.7674 131.344 28.8598C130.324 27.7855 128.779 26.8989 126.905 27.519L127.505 28.8922C128.272 28.6627 129.39 28.7284 130.379 29.7703C131.332 30.7752 131.25 31.7536 130.302 32.5808L130.264 32.6144C129.716 33.0932 129.254 32.514 127.85 31.3685C126.419 30.2041 124.75 29.0285 123.057 30.5067C121.614 31.7664 121.807 33.5631 123.09 34.9152ZM124.268 34.1917C123.441 33.3211 123.248 32.3386 124.036 31.6499C124.902 30.894 125.892 31.4183 126.816 32.1696C127.313 32.5823 128.626 33.7058 129.033 33.6895L127.994 34.5965C127.07 35.4028 125.498 35.4883 124.268 34.1917Z" fill="#016450"/>
<path d="M129.168 42.4993C130.318 43.9988 131.693 43.8677 132.346 43.84L132.454 43.9818L131.189 44.7998L132.075 45.9549L143.056 38.8563L142.139 37.6607L138.085 40.2811L138.008 40.1797C138.235 39.639 138.864 38.5352 137.698 37.0153C136.191 35.0496 133.498 34.7595 130.903 36.4371C128.286 38.1285 127.676 40.5538 129.168 42.4993ZM130.429 41.9266C129.279 40.427 130.083 38.7557 131.841 37.6188C133.578 36.4958 135.505 36.3721 136.67 37.892C137.789 39.351 137.136 40.9252 135.291 42.1176C133.425 43.3238 131.533 43.3653 130.429 41.9266Z" fill="#016450"/>
<path d="M135.179 51.7629C136.216 53.4638 137.877 54.2887 139.461 54.0594L139.074 52.6449C137.947 52.7466 137.022 52.2033 136.407 51.1947C135.487 49.6846 135.889 48.1636 137.759 47.2219L141.464 53.3005L142.044 53.0325C145.358 51.4995 145.364 49.1206 144.301 47.3761C142.919 45.1082 140.101 44.4826 137.366 45.7476C134.631 47.0126 133.703 49.3424 135.179 51.7629ZM138.942 46.6751C140.38 46.1218 142.175 46.4723 143.073 47.9442C143.923 49.3399 143.356 50.7485 141.849 51.4453L138.942 46.6751Z" fill="#016450"/>
<path d="M142.516 66.6446C143.363 69.1617 145.924 70.5232 148.921 70.0221C151.944 69.5169 153.363 67.49 152.516 64.973C151.668 62.4559 149.108 61.0944 146.085 61.5996C143.087 62.1007 141.668 64.1275 142.516 66.6446ZM143.851 66.4214C143.207 64.5094 144.626 63.3518 146.566 63.0276C148.505 62.7034 150.537 63.2841 151.181 65.1961C151.824 67.1081 150.38 68.27 148.44 68.5942C146.501 68.9184 144.495 68.3334 143.851 66.4214Z" fill="#016450"/>
<path d="M150.045 73.2528C151.755 73.1849 152.943 74.1835 153.24 75.5955C153.529 76.9637 152.791 77.8308 151.254 77.8918L145.13 78.1347L145.44 79.6091L151.666 79.3621C154.167 79.2629 155.092 77.9096 154.682 75.9667C154.377 74.5172 153.524 73.6439 152.434 73.2336L152.408 73.1086L153.939 73.0479L153.639 71.6235L143.84 72.0122L144.151 73.4866L150.045 73.2528Z" fill="#016450"/>
<path d="M145.873 92.7277C145.79 94.7179 146.706 96.3676 148.139 97.1172L148.6 95.743C147.615 95.16 147.151 94.1731 147.2 92.993C147.274 91.2261 148.446 90.2318 150.509 90.5735L150.211 97.6859L150.837 97.8111C154.418 98.5271 155.736 96.6036 155.821 94.5624C155.932 91.9088 153.953 89.7376 150.998 89.1468C148.043 88.5559 145.992 89.8954 145.873 92.7277ZM151.786 90.8288C153.278 91.2301 154.566 92.5747 154.494 94.297C154.426 95.93 153.18 96.7358 151.552 96.4104L151.786 90.8288Z" fill="#016450"/>
<path d="M144.97 100.46C144.673 102.145 145.394 103.306 145.949 103.802L145.935 103.877L144.671 103.473L144.409 104.957L150.563 106.924C153.531 107.873 154.284 105.643 154.501 104.411C154.758 102.952 154.564 101.136 152.994 99.8375L152.259 101.09C152.883 101.635 153.476 102.642 153.227 104.056C152.987 105.421 152.169 105.87 150.971 105.487L150.922 105.472C150.229 105.25 150.418 104.54 150.509 102.709C150.6 100.846 150.562 98.7676 148.421 98.0833C146.597 97.5 145.294 98.6244 144.97 100.46ZM146.219 101.099C146.428 99.9168 147.089 99.225 148.087 99.5438C149.181 99.8938 149.34 101.034 149.282 102.237C149.244 102.89 149.118 104.629 149.365 104.974L148.052 104.554C146.884 104.181 145.909 102.859 146.219 101.099Z" fill="#016450"/>
<path d="M143.474 107.355L143.012 108.789L148.683 111.31C149.897 111.849 150.462 113.24 150.023 114.601C149.9 114.984 149.702 115.348 149.648 115.434L151.048 116.057C151.112 115.898 151.246 115.526 151.314 115.314C151.675 114.196 151.381 112.954 150.604 112.219L150.636 112.122L151.989 112.724L152.436 111.338L143.474 107.355Z" fill="#016450"/>
<path d="M147.209 123.193L148.126 121.311L150.16 122.487L150.82 121.133L148.787 119.956L149.435 118.625L148.33 117.985L147.681 119.317L142.376 116.247C140.895 115.39 139.584 116.221 139.024 117.368C138.778 117.873 138.71 118.246 138.687 118.468L139.992 118.87C140.026 118.743 140.072 118.534 140.217 118.235C140.508 117.638 140.965 117.167 142.07 117.806L147.021 120.671L146.104 122.553L147.209 123.193Z" fill="#016450"/>
<path d="M141.778 125.02C143.161 126.027 143.331 127.501 142.494 128.73C141.696 129.902 140.491 130.083 139.232 129.166L134.277 125.558L133.429 126.804L138.466 130.471C140.505 131.955 142.215 131.543 143.343 129.886C144.213 128.609 144.188 127.501 143.626 126.524L143.698 126.418L147.58 129.244L148.428 127.999L137.857 120.303L137.009 121.548L141.778 125.02Z" fill="#016450"/>
<path d="M55.7021 143.134L54.653 142.052L50.2538 146.32C49.2227 147.32 47.765 147.275 46.947 146.432C46.1513 145.612 46.1318 144.519 46.9337 143.741L51.7546 139.064L50.6877 137.965L46.1051 142.41C45.1978 143.29 43.9775 143.371 43.0173 142.381C42.2705 141.611 42.0382 140.556 43.0784 139.547L47.7893 134.977L46.7402 133.895L42.0293 138.465C40.375 140.07 40.4721 141.701 41.6902 142.957C42.6681 143.965 43.8467 144.254 44.9265 143.909L44.9976 143.982C44.5839 145.06 44.7397 146.101 45.6377 147.026C46.5268 147.943 47.6246 148.194 48.6607 147.758L48.7496 147.85L47.6498 148.917L48.6633 149.962L55.7021 143.134Z" fill="#016450"/>
<path d="M43.347 128.486C42.2897 127.14 40.9916 126.975 40.2844 127.107L40.237 127.047L41.3143 126.271L40.3833 125.086L35.1419 128.864C32.6145 130.686 33.7919 132.762 34.5651 133.746C35.4803 134.911 36.9361 135.937 38.8597 135.494L38.3904 134.071C37.6052 134.228 36.4985 134.059 35.6108 132.93C34.7548 131.84 34.9283 130.874 35.9486 130.138L35.9901 130.108C36.5805 129.683 36.9863 130.302 38.2773 131.574C39.5933 132.866 41.1464 134.192 42.9695 132.878C44.5233 131.758 44.4989 129.951 43.347 128.486ZM42.107 129.096C42.8486 130.04 42.95 131.036 42.1007 131.649C41.1684 132.321 40.2314 131.706 39.3812 130.872C38.9246 130.415 37.7223 129.174 37.3159 129.153L38.4347 128.346C39.4291 127.63 41.0024 127.691 42.107 129.096Z" fill="#016450"/>
<path d="M38.0013 120.369C36.9959 118.769 35.6145 118.771 34.9624 118.738L34.8673 118.587L36.2033 117.89L35.4288 116.657L23.8349 122.703L24.6365 123.979L28.9163 121.747L28.9842 121.855C28.708 122.372 27.9788 123.413 28.9979 125.035C30.3158 127.132 32.9697 127.672 35.7097 126.243C38.4724 124.803 39.3057 122.445 38.0013 120.369ZM36.6925 120.821C37.6979 122.422 36.7423 124.011 34.8855 124.979C33.0513 125.935 31.1219 125.879 30.1029 124.257C29.1246 122.701 29.9217 121.194 31.8691 120.179C33.8392 119.151 35.7278 119.286 36.6925 120.821Z" fill="#016450"/>
<path d="M32.8791 110.586C32.0053 108.795 30.4277 107.819 28.8296 107.9L29.083 109.345C30.2141 109.348 31.0849 109.975 31.6031 111.037C32.3789 112.626 31.8364 114.103 29.887 114.867L26.7641 108.469L26.1622 108.682C22.7192 109.9 22.4918 112.268 23.388 114.104C24.5532 116.491 27.3004 117.376 30.1414 116.371C32.9825 115.366 34.1227 113.133 32.8791 110.586ZM28.6591 115.301C27.1757 115.718 25.4203 115.202 24.6641 113.653C23.9471 112.184 24.6434 110.834 26.2084 110.281L28.6591 115.301Z" fill="#016450"/>
<path d="M26.9598 95.0853C26.3503 92.5002 23.9278 90.9062 20.8967 91.126C17.8402 91.3477 16.2383 93.2335 16.8478 95.8186C17.4574 98.4036 19.8799 99.9976 22.9364 99.776C25.9675 99.5562 27.5694 97.6703 26.9598 95.0853ZM25.6099 95.1832C26.0729 97.1468 24.5519 98.1672 22.5906 98.3095C20.6293 98.4517 18.6608 97.6843 18.1978 95.7207C17.7348 93.757 19.2813 92.7347 21.2425 92.5925C23.2038 92.4503 25.1468 93.2195 25.6099 95.1832Z" fill="#016450"/>
<path d="M20.078 87.8049C18.3694 87.7133 17.2795 86.6084 17.1149 85.1749C16.9554 83.7858 17.7703 82.9911 19.3067 83.0735L25.427 83.4018L25.2552 81.9049L19.0329 81.5712C16.5337 81.4371 15.4874 82.6985 15.7138 84.6711C15.8828 86.1426 16.6507 87.0916 17.6976 87.6016L17.7122 87.7284L16.1821 87.6464L16.3481 89.0925L26.1406 89.6178L25.9688 88.1209L20.078 87.8049Z" fill="#016450"/>
<path d="M26.0454 68.8032C26.3137 66.8294 25.5555 65.1016 24.1983 64.2217L23.6108 65.547C24.5379 66.2193 24.9077 67.245 24.7486 68.4154C24.5104 70.1678 23.2513 71.0486 21.2294 70.5164L22.1882 63.4626L21.5765 63.2797C18.0777 62.2333 16.5864 64.0257 16.3112 66.0502C15.9535 68.6819 17.7225 71.028 20.6097 71.8914C23.4968 72.7548 25.6636 71.612 26.0454 68.8032ZM19.9816 70.1433C18.5334 69.6048 17.3758 68.1461 17.608 66.438C17.8281 64.8184 19.1436 64.1321 20.734 64.6077L19.9816 70.1433Z" fill="#016450"/>
<path d="M27.6644 61.1881C28.117 59.538 27.5075 58.3157 27.0012 57.77L27.0214 57.6961L28.2432 58.2165L28.6417 56.7634L22.6974 54.2315C19.8309 53.0105 18.8739 55.1609 18.5429 56.3677C18.1512 57.7961 18.1753 59.6218 19.6173 61.0612L20.4655 59.8821C19.8954 59.2817 19.3983 58.2242 19.7782 56.8388C20.1446 55.5027 21.0008 55.1316 22.1579 55.6245L22.2049 55.6445C22.8745 55.9297 22.6199 56.6189 22.3586 58.433C22.0947 60.2804 21.9396 62.3529 24.0072 63.2335C25.7693 63.9841 27.1714 62.986 27.6644 61.1881ZM26.48 60.436C26.1625 61.5936 25.4395 62.2208 24.4762 61.8105C23.4189 61.3601 23.3669 60.2103 23.5366 59.0173C23.6349 58.3716 23.923 56.6514 23.7086 56.285L24.9773 56.8254C26.1051 57.3058 26.9528 58.712 26.48 60.436Z" fill="#016450"/>
<path d="M29.7955 54.4622L30.3894 53.0774L24.9778 50.0401C23.8198 49.3901 23.3862 47.9528 23.9499 46.6385C24.1084 46.2688 24.3388 45.9249 24.4013 45.8435L23.0651 45.0936C22.9861 45.2457 22.8189 45.6033 22.7308 45.8086C22.2678 46.8883 22.4442 48.1521 23.1495 48.9557L23.1093 49.0495L21.8176 48.3246L21.2439 49.6624L29.7955 54.4622Z" fill="#016450"/>
<path d="M27.552 38.3454L26.4633 40.1342L24.5481 38.7733L23.7647 40.0604L25.6799 41.4213L24.9098 42.6866L25.9507 43.4262L26.7208 42.1609L31.717 45.7111C33.1118 46.7021 34.495 45.9975 35.1589 44.9067C35.451 44.4268 35.5536 44.0622 35.5974 43.8433L34.3347 43.3211C34.2891 43.445 34.2245 43.6491 34.0519 43.9327C33.7067 44.4999 33.2082 44.9269 32.1673 44.1873L27.5042 40.8738L28.5929 39.085L27.552 38.3454Z" fill="#016450"/>
<path d="M33.1293 37.0319C31.8458 35.9004 31.8138 34.4175 32.7621 33.2714C33.6657 32.1794 34.8816 32.1114 36.0502 33.1415L40.6479 37.1946L41.6084 36.0337L36.9341 31.9131C35.0424 30.2454 33.3016 30.4974 32.0236 32.0419C31.0386 33.2323 30.9607 34.3375 31.4291 35.3629L31.3477 35.4613L27.7462 32.2864L26.7856 33.4473L36.594 42.0938L37.5546 40.9329L33.1293 37.0319Z" fill="#016450"/>
</svg>
