<svg width="67" height="35" viewBox="0 0 67 35" fill="none" xmlns="http://www.w3.org/2000/svg">
<path d="M10.1016 32.5189L3.89469 23.9945L3.82661 24.0179C3.91604 24.241 4.05018 24.5755 4.22903 25.0216C4.40789 25.4677 4.59845 25.9478 4.80073 26.462C4.9991 26.9648 5.17051 27.4261 5.31496 27.846L7.25915 33.4969L4.96135 34.2874L0.780165 22.1346L4.28645 20.9283L10.3603 29.2319L10.4114 29.2144L10.2607 18.8728L13.767 17.6665L17.9482 29.8193L15.5483 30.645L13.569 24.892C13.4362 24.5062 13.2896 24.0617 13.1292 23.5585C12.9801 23.0514 12.8351 22.5746 12.6942 22.1282C12.5608 21.6665 12.4607 21.3202 12.3939 21.0894L12.3258 21.1128L12.4675 31.7049L10.1016 32.5189ZM28.4562 26.2041L26.5756 23.615L22.1501 25.1376L22.2606 28.3356L19.4862 29.2902L19.5767 15.6105L22.7255 14.5272L31.2305 25.2495L28.4562 26.2041ZM23.3619 19.1433C23.2388 18.9699 23.0811 18.7513 22.8888 18.4875C22.6966 18.2237 22.5023 17.9542 22.3061 17.6791C22.11 17.404 21.9445 17.1627 21.8096 16.9552C21.831 17.2017 21.8492 17.5127 21.8641 17.8883C21.8866 18.2486 21.9051 18.5975 21.9197 18.9351C21.9418 19.2575 21.9516 19.4889 21.9492 19.6293L22.0532 22.7534L25.2191 21.6642L23.3619 19.1433ZM42.7269 21.2942L40.1568 22.1785L38.3531 16.9361L33.5362 18.5933L35.3399 23.8357L32.7697 24.72L28.5885 12.5671L31.1587 11.6829L32.7984 16.4487L37.6153 14.7914L35.9756 10.0256L38.5457 9.14137L42.7269 21.2942ZM49.2798 5.4483L50.0118 7.57589L44.9056 9.33269L48.3548 19.3579L45.7846 20.2422L41.6035 8.08935L49.2798 5.4483ZM63.9262 7.18588C64.3595 8.44542 64.5283 9.61832 64.4325 10.7046C64.3441 11.7756 63.9642 12.7185 63.2927 13.5333C62.6213 14.348 61.6217 14.9838 60.2941 15.4406C58.9778 15.8934 57.7987 16.0072 56.7568 15.782C55.7261 15.5528 54.8389 15.0395 54.095 14.2422C53.3625 13.4409 52.7795 12.4105 52.3462 11.1509C51.9128 9.8914 51.7404 8.72612 51.8287 7.65511C51.9285 6.58019 52.316 5.64102 52.9914 4.8376C53.6742 4.01892 54.6794 3.3812 56.007 2.92443C57.3233 2.47157 58.4967 2.35972 59.5273 2.58889C60.5541 2.80672 61.4337 3.31627 62.1662 4.11754C62.9062 4.90356 63.4928 5.92634 63.9262 7.18588ZM55.0584 10.2369C55.4956 11.5077 56.0851 12.428 56.8268 12.9977C57.5645 13.5561 58.4724 13.6498 59.5504 13.2789C60.6511 12.9002 61.3148 12.2658 61.5415 11.3756C61.7643 10.4741 61.6571 9.38787 61.2199 8.11698C60.7787 6.83475 60.1949 5.91251 59.4685 5.35026C58.7421 4.788 57.8342 4.69427 56.7448 5.06905C55.6555 5.44384 54.9918 6.07827 54.7537 6.97237C54.5157 7.86646 54.6172 8.95462 55.0584 10.2369Z" fill="#016450"/>
</svg>
