<svg width="149" height="146" viewBox="0 0 149 146" fill="none" xmlns="http://www.w3.org/2000/svg">
<mask id="path-1-inside-1_6_1132" fill="white">
<path fill-rule="evenodd" clip-rule="evenodd" d="M31.5291 65.0805C20.2681 58.4568 13.7379 45.3216 16.1514 31.7024C19.2541 14.1945 35.9623 2.51668 53.4703 5.61936L117.147 16.9038C134.655 20.0065 146.332 36.7147 143.23 54.2226C140.816 67.8418 130.17 77.9331 117.319 80.2836C128.58 86.9073 135.11 100.043 132.696 113.662C129.594 131.17 112.885 142.847 95.3774 139.745L31.7011 128.46C14.1931 125.358 2.51532 108.649 5.618 91.1415C8.03151 77.5223 18.6777 67.431 31.5291 65.0805Z"/>
</mask>
<path fill-rule="evenodd" clip-rule="evenodd" d="M31.5291 65.0805C20.2681 58.4568 13.7379 45.3216 16.1514 31.7024C19.2541 14.1945 35.9623 2.51668 53.4703 5.61936L117.147 16.9038C134.655 20.0065 146.332 36.7147 143.23 54.2226C140.816 67.8418 130.17 77.9331 117.319 80.2836C128.58 86.9073 135.11 100.043 132.696 113.662C129.594 131.17 112.885 142.847 95.3774 139.745L31.7011 128.46C14.1931 125.358 2.51532 108.649 5.618 91.1415C8.03151 77.5223 18.6777 67.431 31.5291 65.0805Z" fill="#CEF564"/>
<path d="M31.5291 65.0805L32.0688 68.0315L39.9978 66.5812L33.05 62.4946L31.5291 65.0805ZM16.1514 31.7024L19.1054 32.2259L16.1514 31.7024ZM53.4703 5.61936L52.9468 8.57333L53.4703 5.61936ZM117.147 16.9038L116.623 19.8577L117.147 16.9038ZM117.319 80.2836L116.779 77.3326L108.85 78.7829L115.798 82.8695L117.319 80.2836ZM95.3774 139.745L94.8539 142.699L95.3774 139.745ZM31.7011 128.46L31.1776 131.414L31.1776 131.414L31.7011 128.46ZM5.618 91.1415L2.66402 90.618L5.618 91.1415ZM33.05 62.4946C22.8341 56.4857 16.9176 44.5714 19.1054 32.2259L13.1974 31.179C10.5582 46.0718 17.702 60.428 30.0081 67.6663L33.05 62.4946ZM19.1054 32.2259C21.9189 16.3494 37.0702 5.75977 52.9468 8.57333L53.9938 2.66539C34.8544 -0.726408 16.5892 12.0395 13.1974 31.179L19.1054 32.2259ZM52.9468 8.57333L116.623 19.8577L117.67 13.9498L53.9938 2.66539L52.9468 8.57333ZM116.623 19.8577C132.5 22.6713 143.089 37.8226 140.276 53.6992L146.184 54.7461C149.575 35.6067 136.809 17.3416 117.67 13.9498L116.623 19.8577ZM140.276 53.6992C138.088 66.0446 128.438 75.2002 116.779 77.3326L117.858 83.2347C131.902 80.666 143.544 69.639 146.184 54.7461L140.276 53.6992ZM115.798 82.8695C126.014 88.8784 131.93 100.793 129.742 113.138L135.65 114.185C138.29 99.2923 131.146 84.9361 118.84 77.6978L115.798 82.8695ZM129.742 113.138C126.929 129.015 111.777 139.604 95.9009 136.791L94.8539 142.699C113.993 146.091 132.258 133.325 135.65 114.185L129.742 113.138ZM95.9009 136.791L32.2246 125.506L31.1776 131.414L94.8539 142.699L95.9009 136.791ZM32.2246 125.506C16.348 122.693 5.75841 107.541 8.57197 91.6649L2.66402 90.618C-0.727772 109.757 12.0382 128.023 31.1776 131.414L32.2246 125.506ZM8.57197 91.6649C10.7598 79.3195 20.4102 70.1639 32.0688 68.0315L30.9893 62.1294C16.9453 64.6981 5.30326 75.7251 2.66402 90.618L8.57197 91.6649Z" fill="#016450" mask="url(#path-1-inside-1_6_1132)"/>
<path d="M54.9849 72.9147L54.7265 70.7971L51.6543 70.2527L50.6839 72.1525L48.758 71.8112L53.2369 63.8669L55.4229 64.2543L56.9109 73.256L54.9849 72.9147ZM54.3002 67.1508C54.2846 67.0099 54.2634 66.8315 54.2366 66.6155C54.2099 66.3995 54.1839 66.1796 54.1586 65.9558C54.1332 65.7319 54.1148 65.5377 54.1034 65.3732C54.0361 65.5238 53.946 65.7109 53.8333 65.9347C53.7298 66.1519 53.6276 66.3613 53.5269 66.5629C53.4355 66.7579 53.3664 66.8959 53.3195 66.977L52.3693 68.8317L54.567 69.2211L54.3002 67.1508ZM64.8917 74.6704L63.1075 74.3542L63.7525 70.7149L60.4086 70.1223L59.7636 73.7616L57.9794 73.4454L59.4745 65.0088L61.2587 65.325L60.6724 68.6335L64.0163 69.2261L64.6026 65.9176L66.3868 66.2338L64.8917 74.6704ZM72.178 75.9616L71.9195 73.844L68.8474 73.2996L67.877 75.1994L65.951 74.8581L70.43 66.9138L72.6159 67.3011L74.104 76.3029L72.178 75.9616ZM71.4933 70.1977C71.4776 70.0568 71.4564 69.8783 71.4297 69.6624C71.403 69.4464 71.3769 69.2265 71.3516 69.0026C71.3263 68.7788 71.3079 68.5846 71.2964 68.4201C71.2291 68.5706 71.1391 68.7578 71.0263 68.9815C70.9228 69.1988 70.8207 69.4082 70.72 69.6097C70.6286 69.8048 70.5594 69.9428 70.5125 70.0239L69.5623 71.8785L71.7601 72.268L71.4933 70.1977ZM82.0848 77.7172L80.3006 77.401L80.9455 73.7617L77.6016 73.1691L76.9567 76.8084L75.1725 76.4923L76.6676 68.0557L78.4518 68.3719L77.8655 71.6803L81.2094 72.2729L81.7957 68.9645L83.5799 69.2807L82.0848 77.7172ZM89.371 79.0085L89.1126 76.8909L86.0404 76.3464L85.07 78.2463L83.1441 77.9049L87.623 69.9606L89.809 70.348L91.297 79.3498L89.371 79.0085ZM88.6863 73.2445C88.6706 73.1036 88.6495 72.9252 88.6227 72.7092C88.596 72.4933 88.57 72.2733 88.5447 72.0495C88.5193 71.8256 88.5009 71.6314 88.4895 71.4669C88.4222 71.6175 88.3321 71.8046 88.2194 72.0284C88.1158 72.2457 88.0137 72.4551 87.913 72.6566C87.8216 72.8516 87.7524 72.9897 87.7056 73.0707L86.7554 74.9254L88.9531 75.3149L88.6863 73.2445ZM97.1979 73.1077C96.5126 72.9862 95.9434 73.1494 95.4903 73.5972C95.0372 74.045 94.7318 74.714 94.574 75.6041C94.4149 76.5021 94.4568 77.2286 94.6997 77.7835C94.9519 78.3319 95.4482 78.6717 96.1886 78.8029C96.5352 78.8644 96.8849 78.8857 97.2376 78.867C97.5981 78.8496 97.9918 78.8056 98.4187 78.735L98.1528 80.2357C97.756 80.3197 97.3702 80.3651 96.9953 80.3718C96.6203 80.3784 96.2084 80.342 95.7594 80.2624C94.8929 80.1089 94.2075 79.8046 93.7031 79.3496C93.208 78.8882 92.8838 78.3107 92.7305 77.6173C92.5785 76.916 92.5793 76.1322 92.7329 75.2657C92.8836 74.4149 93.1706 73.6899 93.5936 73.0905C94.0167 72.4911 94.5525 72.058 95.201 71.791C95.8574 71.5255 96.611 71.4681 97.4618 71.6189C97.8793 71.6929 98.287 71.822 98.6849 72.0063C99.0922 72.1841 99.4727 72.3977 99.8266 72.6473L98.9901 73.9981C98.7015 73.7926 98.4055 73.606 98.1021 73.4385C97.8065 73.2724 97.5051 73.1621 97.1979 73.1077Z" fill="#016450"/>
</svg>
